<svg width="16" height="16" viewBox="0 0 16 16" fill="none" xmlns="http://www.w3.org/2000/svg">
<path d="M14.1659 12.2634H12.5262C12.2606 11.3873 11.4436 10.7424 10.4707 10.7424C9.49782 10.7424 8.68372 11.3873 8.41524 12.2634H0.614905C0.27714 12.2634 0 12.5345 0 12.8712C0 13.208 0.27714 13.4791 0.614905 13.4791H8.41236C8.67795 14.3551 9.49494 15 10.4678 15C11.4407 15 12.2548 14.3551 12.5233 13.4791H14.163C14.5037 13.4791 14.7779 13.2051 14.7779 12.8712C14.7779 12.5373 14.5066 12.2634 14.1659 12.2634ZM10.4707 13.7844C9.96261 13.7844 9.5469 13.3735 9.5469 12.8712C9.5469 12.369 9.96261 11.9581 10.4707 11.9581C10.9788 11.9581 11.3945 12.369 11.3945 12.8712C11.3945 13.3735 10.9788 13.7844 10.4707 13.7844Z" fill="#868686"/>
<path d="M14.1659 2.521H12.5262C12.2577 1.64493 11.4436 1 10.4707 1C9.49782 1 8.68372 1.64493 8.41524 2.521H0.614905C0.27714 2.521 0 2.79495 0 3.13168C0 3.46841 0.27714 3.73951 0.614905 3.73951H8.41236C8.68084 4.61558 9.49494 5.2605 10.4678 5.2605C11.4407 5.2605 12.2548 4.61558 12.5233 3.73951H14.163C14.5037 3.73951 14.7779 3.46556 14.7779 3.13168C14.7779 2.7978 14.5066 2.521 14.1659 2.521ZM10.4707 4.04485C9.96261 4.04485 9.5469 3.63392 9.5469 3.13168C9.5469 2.62944 9.96261 2.21851 10.4707 2.21851C10.9788 2.21851 11.3945 2.62944 11.3945 3.13168C11.3945 3.63392 10.9788 4.04485 10.4707 4.04485Z" fill="#868686"/>
<path d="M14.1659 7.39214H6.36556C6.09708 6.51607 5.28298 5.87114 4.31011 5.87114C3.33723 5.87114 2.52313 6.51607 2.25465 7.39214H0.614905C0.27714 7.39214 0 7.66609 0 7.99997C0 8.33384 0.27714 8.6078 0.614905 8.6078H2.25465C2.52313 9.48387 3.33723 10.1288 4.31011 10.1288C5.28298 10.1288 6.09708 9.48387 6.36556 8.6078H14.163C14.5037 8.6078 14.7779 8.33384 14.7779 7.99997C14.7808 7.66609 14.5066 7.39214 14.1659 7.39214ZM4.31011 8.91314C3.80202 8.91314 3.38631 8.50221 3.38631 7.99997C3.38631 7.49772 3.80202 7.0868 4.31011 7.0868C4.8182 7.0868 5.23391 7.49772 5.23391 7.99997C5.23391 8.50221 4.82108 8.91314 4.31011 8.91314Z" fill="#868686"/>
</svg>
